<?xml version="1.0" encoding="UTF-8"?>
<svg id="b" data-name="Camada_2" xmlns="http://www.w3.org/2000/svg" viewBox="0 0 542.32 458.87">
  <defs>
    <style>
      .e {
        fill: #f5f2ee;
      }
    </style>
  </defs>
  <g id="c" data-name="Camada_1">
    <g>
      <g id="d" data-name="c">
        <path class="e" d="M395.89,200.16c-12.77,2.33-24.99,6.93-35.57,13.04-11.06,6.4-21.54,15.07-30.17,25.54-8.51-8.29-19.01-15.37-29.88-18.9-15.92-5.19-31.38-6.37-48.56-2.79,1.56,2.98,3.43,6.66,5.2,10.92,0,0,2.76,6.82,4.63,14.44,6.41,26.21,11.18,45.68,2.86,64.17-1.4,3.1-12.06,25.87-34.64,29.69-19.5,3.3-35.26-10.65-44.53-18.8-27.25-23.95-32.82-57.55-34.26-71.12-4.83.44-9.65.88-14.48,1.32,9.83,58.57,42.73,100.37,79.41,104.44,2.31.26,25.74,2.51,44.32-12.3,25.65-20.45,23.86-58.94,23.21-73.01-.66-14.32-3.78-25.95-6.44-33.76,18.75,6.32,37.51,12.64,56.26,18.96,14.09-9.68,28.18-19.35,42.27-29.03,4.04,17.77,20.96,100.56-28.99,165.76-9.88,12.9-31.07,40.55-68.28,49.48-46.64,11.19-94.71-11.96-118.75-41.56-41.05-50.52-33.58-140.63-33.58-140.63-.26-.13-16.19,14.25-16.31,13.71,0,0-.07-.29-.16-.68-.07-.29-.08-.34-.08-.34,0,0,0,0,0,0,0,.09-.02.22-.03.37-1.09,15.26-8.3,116.68,62.03,165.18,43.13,29.74,106.72,33.58,152.92,5.51,20.88-12.69,32.99-30.09,39.49-39.38,21.7-31,26.2-61.13,31.24-97.74,3.4-24.73,5.87-59.99.86-102.47Z"/>
      </g>
      <path class="e" d="M407.67,85.04c-3.08-9.33-8.32-22.93-17.11-38.17-11.07-19.18-17.58-30.46-31.29-38.47-21.88-12.77-45.53-7.47-50.73-6.39-17.32,3.6-33.24,13.47-46.69,29.16-32.87,38.33-30.99,45.34-55.9,65.49-3.88,3.14-22.62,17.85-47.64,24.9.07.33.13.67.18,1,1.33,9.1-5.4,17.54-10.82,22.82,8.66-1.35,21.4-4.12,35.54-10.53,29.66-13.44,60.55-50.02,60.55-50.02,25.78-30.64,25.78-42.86,48.09-56.39,7.91-4.8,17.94-10.71,31.59-10.53,24.72.32,43.73,20.39,48.49,29.49.29.56,1.58,2.98,4.98,9.67,1.57,3.08,3.69,7.21,6.67,12.91,2.97,5.67,6.57,12.38,10.93,20.22.58,1.04,1.06,1.9,1.38,2.48,3.93-2.54,7.86-5.09,11.79-7.63Z"/>
      <path class="e" d="M486.99,378.26c-8.01,9.53-11.16,20.19-9.19,29.87,1.59,7.77,6.27,13.07,7.53,14.27,8.06,7.66,15.25,7.73,24.9,13.59,5.45,3.31,12.54,9.2,17.87,20.42,4.73-.27,9.47-.54,14.2-.81-1.4-4.9-4.14-12.66-9.69-21.03-15.7-23.68-33.75-21.86-37.9-37.07-5.53-20.26,22.15-39.44,11.95-51.62-2.85-3.41-4.81-4.65-16.3-12.28-11.34-7.54-12.26-16.07-2.5-26.91.96-1.07,14.71-23.1,8.68-37.93-1.29-3.17-5.23-10.3-19.38-15.12-2.25,5.79-4.5,11.58-6.75,17.37,9.01,10.53,9.36,18.44,8.12,23.63-3.28,13.75-20.49,20.04-19.32,32.72.46,4.99,3.68,10.02,4.21,10.84,2.31,3.6,5.46,6.73,9.42,9.4,3.73,2.52,7.6,4.89,11.39,7.35,8.81,5.73,9.87,14.84,2.74,23.33Z"/>
      <path class="e" d="M458.39,156.82c6.69-10.5,8.42-21.48,5.19-30.81-2.59-7.5-7.93-12.14-9.34-13.16-9-6.53-16.13-5.66-26.47-10.2-5.83-2.56-13.64-7.48-20.4-17.89-4.66.89-9.32,1.78-13.97,2.67,2.04,4.68,5.76,12.01,12.37,19.58,18.67,21.42,36.33,17.24,42.44,31.78,8.14,19.36-16.78,42-5.07,52.75,3.27,3,5.38,3.98,17.77,10.04,5.85,2.86,9.37,6.27,10.54,10.36,1.2,4.18-.84,6.88-4.53,16-4.9,12.1-7.34,18.15-6.67,23.61.53,4.3,2.04,5.2,10.29,19.41,3.48,6,6.2,10.98,7.97,14.28,3.81-8.19,7.63-16.39,11.44-24.58-10.32-9.28-12.38-16.76-12.21-22.02.46-13.98,16.58-27.39,14.86-34.98-1.11-4.89-4.97-9.45-5.6-10.19-2.77-3.26-6.3-5.96-10.57-8.08-4.03-2.01-8.18-3.85-12.26-5.79-9.48-4.52-11.73-13.42-5.78-22.77Z"/>
      <path class="e" d="M483.6,437.02c-15.7-23.68-33.75-21.86-37.9-37.07-5.53-20.26,22.15-39.44,11.95-51.62-2.85-3.41-4.81-4.65-16.3-12.28-5.43-3.61-8.47-7.44-9.09-11.65-.64-4.29,1.97-6.83,6.59-15.26,3.39-6.19,5.65-11.45,6.99-14.8-7.02-3.95-14.04-7.9-21.06-11.85-3.84,14.22-7.82,24.19-11.04,31.1-1.64,3.51-4.91,9.18-3.53,16.22,1.18,6.01,4.03,10.56,4.03,10.56.07.12.13.21.18.28,2.31,3.6,5.46,6.73,9.41,9.4,3.73,2.52,7.61,4.89,11.39,7.35,8.81,5.73,9.87,14.84,2.74,23.33-8.01,9.53-11.16,20.19-9.19,29.87,1.59,7.77,6.27,13.07,7.53,14.27,8.06,7.66,15.25,7.73,24.9,13.59,5.45,3.31,12.54,9.2,17.87,20.42,4.73-.27,9.47-.54,14.2-.81-1.4-4.9-4.14-12.66-9.69-21.03Z"/>
      <path class="e" d="M102.91,167.75c-3.01,5.95-10.43,20.59-9.39,40.04.26,4.86.99,8.88,1.63,11.7-8.37-2.71-21.11-5.44-36.43-3.37-31.49,4.27-52,25.9-58.72,33.65,2.98,6.36,12.59,24.68,33.82,34.74,36.46,17.26,72.32-6.33,74.22-7.63.33,4.29.66,8.58.99,12.86,3.96-3.96,7.92-7.92,11.88-11.88,1.65-7.26,3.3-14.51,4.95-21.77-5.01,4.03-27.22,20.99-59.38,18.8-28.91-1.97-47.44-18.17-52.6-23.01,10.79-6.34,29.56-15.46,54.58-18.55,19.32-2.38,35.54-.32,46.51,1.98-2.3-7.38-7.41-27.35.99-49.48,1.79-4.71,6.64-15.8,17.22-26,11.34-10.93,23.78-15.54,31.59-18.43,5.35-1.98,9.94-3.2,13.16-3.95-6.58-5.27-13.16-10.53-19.74-15.8-5.66,2.11-39.72,15.33-55.28,46.07Z"/>
      <path class="e" d="M159.17,156.17c2.6,6.35,10.88,28.8,2.35,55.23-6.36,19.69-18.81,31.56-24.6,36.45.46,2.19.92,4.38,1.38,6.57,5.17-1.87,13.04-5.4,20.95-12.04,4.38-3.68,20.08-17.27,23.33-39.71,2.58-17.79-3.94-32.35-8.29-42.05-2.06-4.61-4.14-8.26-5.65-10.73-3.16,2.09-6.32,4.18-9.47,6.28Z"/>
      <path class="e" d="M412.21,174.95c-2.76-6.48-8.28-18.84-18.43-21.06-3.22-.71-5.29-.04-11.85,0-8.57.05-15.51-1.04-20.06-1.96,0,0,0,0,0,0-.07-.02-.59-.18-.85-.28,0,0,0,0,0,0,0,0,0,0,0,0-.11-.04-.2-.08-.3-.12-9.81-4.03-12.89-36.04-1.69-42.55,2.55-1.48,5.38-1.38,7.1-1.15-.1-7.24-.2-14.48-.3-21.72-5.96-3.82-12.41-8.46-19.04-14.07-10.07-8.52-17.99-17.14-24.1-24.76-3.95.44-7.9.88-11.85,1.32-2.33,6-6.47,14.59-13.78,23.36-7.71,9.26-15.91,15.04-21.57,18.42.71,7.68,1.42,15.37,2.13,23.05,1.82-.52,6.26-1.5,9.77.83,2.93,1.94,3.35,5.46,4.78,11.04,2.46,9.61,4.63,19.21.38,25.24-7.04,9.99-21.63.78-38.9,11.2-8.46,5.1-5.79,7.81-22.55,24.45-8.72,8.66-14.44,13.95-23.2,19.51-4.95,3.14-9.95,5.63-14.98,7.48-.26,7.9-.52,15.81-.79,23.72,5.06-2.78,13.56-7.72,23.34-14.95,29.62-21.88,31.66-35.62,52.11-42.31,16.26-5.32,24.2.54,33.06-7.46,8.94-8.07,9.72-21.96,8.88-32.76,9.15-.93,18.31-1.85,27.46-2.78.36,21.68,6.62,29.68,12.03,33.05,10.56,6.59,20.7-2.13,34.22,3.95,5.26,2.36,11.26,7.08,23.69,35.54,5.44,12.45,12.26,29.79,18.43,51.34,7.02,3.51,14.04,7.02,21.06,10.53-14.08-44.15-26.53-78.04-34.22-96.09ZM331.7,116.55c-1.73,1.19-5.04,3.48-9.74,3.65-3.32.12-6.68-.88-10.03-2.98-7.46-4.69-11.99-11.63-14.54-18.93,8.51-8.41,16.3-16.11,23.43-23.16,7.7,6.13,15.4,12.25,23.1,18.38-.37,2.94-2.31,16.2-12.22,23.04Z"/>
    </g>
  </g>
</svg>