<?xml version="1.0" encoding="UTF-8"?>
<svg id="b" data-name="Camada_2" xmlns="http://www.w3.org/2000/svg" viewBox="0 0 1088.84 315.96">
  <defs>
    <style>
      .e {
        fill: #f5f2ee;
      }
    </style>
  </defs>
  <g id="c" data-name="Camada_1">
    <g>
      <g>
        <path class="e" d="M436.33,190.49l-4.1-112.93,55.56-.73c19.32-.25,34.65,4.13,45.99,13.16,11.33,9.03,17.33,22.5,17.98,40.4.48,13.3-2.21,24.36-8.06,33.18-5.86,8.82-13.67,15.36-23.45,19.62-9.78,4.26-20.44,6.46-31.98,6.61l-51.93.68ZM469.83,186.68c13.56-.07,24.94-1.78,34.15-5.11,9.21-3.34,16.25-9.12,21.12-17.34,4.87-8.22,7.05-19.41,6.54-33.56-.46-12.65-3.07-22.68-7.84-30.08-4.77-7.39-11.77-12.64-21.01-15.74-9.24-3.1-21.11-4.5-35.6-4.2l-14.74-1.1,3.96,109.07,13.42-1.94Z"/>
        <path class="e" d="M570.58,83.07c-2.21-1.74-3.36-3.84-3.45-6.31s.91-4.6,2.99-6.4c2.08-1.8,4.67-2.72,7.75-2.76,3.08-.04,5.77.81,8.05,2.55,2.28,1.74,3.46,3.84,3.55,6.31.09,2.47-.94,4.6-3.09,6.4-2.15,1.8-4.77,2.72-7.85,2.76-3.09.04-5.74-.81-7.95-2.55ZM592.33,188.45l-20.13.26-3.37-92.98,20.13-.26,3.37,92.98Z"/>
        <path class="e" d="M609.48,193.44h-3.24s41.96-126.32,41.96-126.32h15.12s1.54,117.37,1.54,117.37l77.66-117.29h15.48s-42.14,126.33-42.14,126.33l-18-.02,35.84-106.88-70.94,106.85h-15.66s-1.3-108.91-1.3-108.91l-36.32,108.86Z"/>
        <path class="e" d="M776.86,75.42c-1.26-1.98-1.43-4.35-.51-7.11.92-2.76,2.67-5.13,5.25-7.1,2.58-1.98,5.25-2.97,8.01-2.96,2.76,0,4.8.99,6.12,2.98,1.32,1.98,1.52,4.35.6,7.11-.92,2.76-2.7,5.13-5.34,7.1-2.64,1.98-5.34,2.97-8.1,2.96-2.76,0-4.77-.99-6.03-2.98ZM753.47,193.57l-18-.02,34.7-104,18,.02-34.7,104Z"/>
        <path class="e" d="M798.46,193.61l-18-.02,40.58-121.64c2.04-6.12,2.8-10.83,2.28-14.13-.52-3.3-2.3-5.61-5.34-6.93-3.04-1.32-7.62-1.99-13.74-1.99l3.54-10.62c12.4,4.57,20.7,11.36,24.9,20.36,4.2,9,4.64,18.48,1.31,28.44l-35.54,106.52Z"/>
        <path class="e" d="M846.79,170.7c1.78,6.9,5.32,12.19,10.65,15.85,5.32,3.67,11.88,5.5,19.68,5.51,12.72.01,26.72-4.53,42-13.64l-5.1,15.3c-11.8,2.63-22.86,3.94-33.18,3.93-12.6-.01-23.38-2.06-32.34-6.15-8.96-4.09-15.09-10.54-18.39-19.37-3.3-8.82-2.71-19.95,1.78-33.39,3.68-11.04,9.32-20.48,16.92-28.33,7.6-7.85,16.44-13.75,26.52-17.7,10.08-3.95,20.64-5.92,31.68-5.91,9.24,0,16.65,1.37,22.23,4.07s9.19,6.37,10.83,10.99c1.64,4.62,1.54,9.69-.3,15.21-2.08,6.24-6.25,11.81-12.51,16.73-6.26,4.92-14.02,8.75-23.28,11.5-9.26,2.75-19.29,4.12-30.09,4.11-8.76,0-17.56-.97-26.4-2.9-2.24,9.24-2.47,17.31-.69,24.21ZM881.91,97.57c-7.46,4.55-14.04,10.61-19.74,18.16-5.7,7.55-9.97,15.59-12.81,24.11l-1.14,3.42c7.36.97,13.86,1.45,19.5,1.46,14.52.01,26.71-2.61,36.57-7.89,9.86-5.27,16.33-12.52,19.41-21.76,2.2-6.6,2.03-12.3-.51-17.1-2.54-4.8-8.61-7.21-18.21-7.22-7.92,0-15.61,2.27-23.07,6.82Z"/>
        <path class="e" d="M930.46,175.73c7.4,5.17,15.13,9.08,23.19,11.72,8.06,2.65,15.75,3.97,23.07,3.98,7.56,0,14.04-1.43,19.44-4.3,5.4-2.88,9-7.01,10.8-12.41,1.36-4.08,1.01-7.8-1.05-11.16-2.06-3.36-5.01-6.3-8.85-8.83-3.84-2.52-9.12-5.59-15.84-9.19-7.36-3.85-13.17-7.21-17.43-10.1-4.26-2.88-7.53-6.31-9.81-10.27-2.28-3.96-2.58-8.46-.9-13.5,2.84-8.52,9.22-14.87,19.14-19.06,9.92-4.19,21.78-6.28,35.58-6.27,11.88.01,23.72,1.4,35.52,4.17l-6,17.99c-4.48-4.92-10.83-8.92-19.05-11.99-8.22-3.07-16.41-4.6-24.57-4.61-6.36,0-11.85,1.07-16.47,3.22-4.62,2.16-7.65,5.39-9.09,9.71-1.04,3.12-.67,5.97,1.11,8.55,1.78,2.58,4.31,4.9,7.59,6.94,3.28,2.05,8,4.63,14.16,7.75,8.12,4.09,14.54,7.69,19.26,10.82,4.72,3.13,8.36,7.06,10.92,11.8s2.78,10.29.66,16.65c-3.52,10.56-10.8,18.26-21.85,23.11-11.04,4.85-23.88,7.27-38.52,7.25-11.88-.01-24.14-1.58-36.78-4.71l5.76-17.28Z"/>
        <path class="e" d="M1068.8,75.69c-1.26-1.98-1.43-4.35-.51-7.11.92-2.76,2.67-5.13,5.25-7.1,2.58-1.98,5.25-2.97,8.01-2.96,2.76,0,4.8.99,6.12,2.98,1.32,1.98,1.52,4.35.6,7.11-.92,2.76-2.7,5.13-5.34,7.1-2.64,1.98-5.34,2.97-8.1,2.96-2.76,0-4.77-.99-6.03-2.98ZM1045.41,193.84l-18-.02,34.7-104,18,.02-34.7,104Z"/>
        <path class="e" d="M444.47,277.04v-42.49h6l23.75,31.96v-31.96h6.05v42.49h-6.05l-23.75-32.01v32.01h-6Z"/>
        <path class="e" d="M518.86,234.55h6.52l15.54,42.49h-6.52l-4.07-11.06h-16.36l-4.02,11.06h-6.64l15.54-42.49ZM528.58,260.33l-6.46-17.7-6.4,17.7h12.86Z"/>
        <path class="e" d="M560.6,234.55h31.96v5.76h-12.98v36.73h-6v-36.73h-12.98v-5.76Z"/>
        <path class="e" d="M615.49,234.55h6v26.25c0,3.45.96,6.12,2.88,8,1.92,1.88,4.39,2.82,7.42,2.82s5.54-.94,7.54-2.82c2-1.88,3-4.55,3-8v-26.25h6.05v26.31c0,5.08-1.57,9.16-4.71,12.22-3.14,3.07-7.06,4.6-11.76,4.6s-8.65-1.53-11.76-4.6c-3.11-3.06-4.66-7.14-4.66-12.22v-26.31Z"/>
        <path class="e" d="M690.87,234.55c4.23,0,7.67,1.28,10.33,3.84,2.66,2.56,3.99,5.72,3.99,9.49,0,2.99-.89,5.62-2.68,7.89-1.79,2.27-4.13,3.75-7.04,4.45l10.42,16.82h-6.98l-9.66-15.77h-8.5v15.77h-6v-42.49h16.12ZM690.75,255.39c2.48,0,4.48-.73,6-2.18,1.51-1.46,2.27-3.23,2.27-5.33s-.76-3.81-2.27-5.27c-1.51-1.46-3.51-2.18-6-2.18h-10.01v14.96h10.01Z"/>
        <path class="e" d="M741.16,234.55h6.52l15.54,42.49h-6.52l-4.07-11.06h-16.36l-4.02,11.06h-6.64l15.54-42.49ZM750.88,260.33l-6.46-17.7-6.4,17.7h12.86Z"/>
        <path class="e" d="M813.74,277.04h-27.42v-42.49h6v36.5h21.42v6Z"/>
        <path class="e" d="M870.61,234.55h6v18.34h21.07v-18.34h6v42.49h-6v-18.16h-21.07v18.16h-6v-42.49Z"/>
        <path class="e" d="M942.27,234.55h6.52l15.54,42.49h-6.52l-4.07-11.06h-16.36l-4.02,11.06h-6.64l15.54-42.49ZM951.99,260.33l-6.46-17.7-6.4,17.7h12.86Z"/>
        <path class="e" d="M993.43,277.04h-6v-42.49h6v42.49Z"/>
        <path class="e" d="M1036.5,234.55c4.23,0,7.67,1.28,10.33,3.84,2.66,2.56,3.99,5.72,3.99,9.49,0,2.99-.89,5.62-2.68,7.89-1.79,2.27-4.13,3.75-7.04,4.45l10.42,16.82h-6.98l-9.66-15.77h-8.5v15.77h-6v-42.49h16.12ZM1036.39,255.39c2.48,0,4.48-.73,6-2.18,1.51-1.46,2.27-3.23,2.27-5.33s-.76-3.81-2.27-5.27c-1.51-1.46-3.51-2.18-6-2.18h-10.01v14.96h10.01Z"/>
      </g>
      <g>
        <g id="d" data-name="c">
          <path class="e" d="M272.6,137.82c-8.79,1.6-17.21,4.77-24.49,8.98-7.62,4.41-14.83,10.38-20.78,17.59-5.86-5.71-13.09-10.58-20.57-13.02-10.96-3.57-21.61-4.39-33.44-1.92,1.07,2.05,2.36,4.58,3.58,7.52,0,0,1.9,4.7,3.19,9.95,4.42,18.04,7.7,31.46,1.97,44.19-.96,2.14-8.31,17.81-23.85,20.44-13.43,2.27-24.28-7.33-30.66-12.95-18.76-16.49-22.6-39.63-23.59-48.97-3.32.3-6.65.6-9.97.91,6.77,40.33,29.42,69.11,54.68,71.92,1.59.18,17.72,1.73,30.52-8.47,17.66-14.08,16.43-40.58,15.98-50.27-.46-9.86-2.6-17.87-4.44-23.25,12.91,4.35,25.83,8.71,38.74,13.06,9.7-6.66,19.41-13.33,29.11-19.99,2.78,12.23,14.43,69.24-19.96,114.14-6.81,8.88-21.39,27.92-47.02,34.07-32.12,7.71-65.21-8.24-81.77-28.62-28.26-34.79-23.12-96.83-23.12-96.83-.18-.09-11.15,9.81-11.23,9.44,0,0-.05-.2-.11-.47-.05-.2-.05-.23-.05-.23,0,0,0,0,0,0,0,.06-.01.15-.02.25-.75,10.51-5.72,80.34,42.71,113.74,29.7,20.48,73.49,23.12,105.3,3.79,14.38-8.74,22.72-20.72,27.19-27.12,14.94-21.35,18.04-42.09,21.51-67.3,2.34-17.03,4.05-41.3.59-70.56Z"/>
        </g>
        <path class="e" d="M280.71,58.55c-2.12-6.42-5.73-15.79-11.78-26.28-7.62-13.21-12.1-20.98-21.55-26.49-15.07-8.79-31.35-5.15-34.93-4.4-11.93,2.48-22.89,9.27-32.15,20.08-22.63,26.4-21.34,31.22-38.49,45.09-2.67,2.16-15.58,12.29-32.8,17.14.05.23.09.46.12.69.92,6.27-3.72,12.08-7.45,15.72,5.96-.93,14.73-2.84,24.47-7.25,20.42-9.25,41.69-34.44,41.69-34.44,17.75-21.1,17.75-29.51,33.11-38.83,5.44-3.3,12.35-7.37,21.75-7.25,17.02.22,30.11,14.04,33.39,20.3.2.39,1.09,2.05,3.43,6.66,1.08,2.12,2.54,4.97,4.6,8.89,2.05,3.9,4.53,8.53,7.53,13.92.4.72.73,1.31.95,1.71,2.71-1.75,5.41-3.5,8.12-5.26Z"/>
        <path class="e" d="M335.33,260.46c-5.52,6.56-7.69,13.9-6.33,20.56,1.09,5.35,4.32,9,5.19,9.83,5.55,5.27,10.5,5.32,17.15,9.36,3.75,2.28,8.64,6.34,12.31,14.06,3.26-.19,6.52-.37,9.78-.56-.97-3.38-2.85-8.72-6.67-14.48-10.81-16.31-23.24-15.05-26.1-25.53-3.81-13.95,15.25-27.15,8.23-35.55-1.96-2.35-3.31-3.2-11.22-8.46-7.81-5.19-8.44-11.06-1.72-18.53.66-.73,10.13-15.91,5.98-26.12-.89-2.18-3.6-7.09-13.35-10.41-1.55,3.99-3.1,7.98-4.65,11.96,6.2,7.25,6.45,12.7,5.59,16.27-2.26,9.47-14.11,13.8-13.31,22.53.32,3.44,2.54,6.9,2.9,7.46,1.59,2.48,3.76,4.64,6.48,6.47,2.57,1.73,5.24,3.37,7.84,5.06,6.06,3.94,6.8,10.22,1.88,16.06Z"/>
        <path class="e" d="M315.64,107.98c4.61-7.23,5.79-14.79,3.57-21.22-1.79-5.16-5.46-8.36-6.43-9.06-6.19-4.5-11.11-3.9-18.23-7.03-4.02-1.76-9.39-5.15-14.05-12.32-3.21.61-6.41,1.23-9.62,1.84,1.4,3.22,3.97,8.27,8.51,13.48,12.86,14.75,25.01,11.87,29.22,21.88,5.61,13.33-11.55,28.92-3.49,36.32,2.25,2.07,3.71,2.74,12.23,6.91,4.03,1.97,6.45,4.32,7.26,7.13.82,2.87-.58,4.74-3.12,11.01-3.37,8.33-5.06,12.5-4.6,16.26.36,2.96,1.41,3.58,7.09,13.36,2.4,4.13,4.27,7.56,5.49,9.84,2.63-5.64,5.25-11.28,7.88-16.92-7.11-6.39-8.52-11.54-8.41-15.16.31-9.63,11.42-18.86,10.23-24.08-.77-3.37-3.42-6.51-3.85-7.02-1.9-2.25-4.34-4.1-7.28-5.56-2.78-1.38-5.63-2.65-8.44-3.99-6.53-3.11-8.08-9.24-3.98-15.68Z"/>
        <path class="e" d="M333,300.92c-10.81-16.31-23.24-15.06-26.1-25.53-3.81-13.95,15.25-27.15,8.23-35.55-1.96-2.35-3.31-3.2-11.22-8.46-3.74-2.48-5.83-5.12-6.26-8.02-.44-2.95,1.36-4.71,4.54-10.51,2.34-4.26,3.89-7.89,4.81-10.19-4.83-2.72-9.67-5.44-14.5-8.16-2.65,9.79-5.38,16.65-7.6,21.42-1.13,2.42-3.38,6.32-2.43,11.17.81,4.14,2.78,7.27,2.78,7.27.05.08.09.15.12.19,1.59,2.48,3.76,4.64,6.48,6.47,2.57,1.73,5.24,3.37,7.84,5.06,6.06,3.94,6.8,10.22,1.88,16.06-5.52,6.56-7.69,13.9-6.33,20.56,1.09,5.35,4.32,9,5.19,9.83,5.55,5.27,10.5,5.32,17.15,9.36,3.75,2.28,8.64,6.34,12.31,14.06,3.26-.19,6.52-.37,9.78-.56-.97-3.38-2.85-8.72-6.67-14.48Z"/>
        <path class="e" d="M70.86,115.51c-2.07,4.09-7.18,14.18-6.46,27.57.18,3.34.68,6.11,1.12,8.06-5.76-1.87-14.54-3.75-25.08-2.32-21.68,2.94-35.8,17.83-40.43,23.17,2.05,4.38,8.67,17,23.29,23.92,25.1,11.89,49.8-4.36,51.1-5.25.23,2.95.45,5.91.68,8.86,2.73-2.73,5.45-5.45,8.18-8.18,1.14-5,2.27-9.99,3.41-14.99-3.45,2.77-18.75,14.45-40.89,12.95-19.91-1.36-32.66-12.51-36.22-15.85,7.43-4.36,20.35-10.65,37.58-12.77,13.3-1.64,24.47-.22,32.03,1.36-1.58-5.08-5.1-18.84.68-34.07,1.23-3.24,4.57-10.88,11.86-17.9,7.81-7.53,16.37-10.7,21.75-12.69,3.68-1.36,6.85-2.2,9.06-2.72-4.53-3.63-9.06-7.25-13.6-10.88-3.9,1.45-27.35,10.56-38.07,31.72Z"/>
        <path class="e" d="M109.6,107.54c1.79,4.37,7.5,19.83,1.62,38.03-4.38,13.56-12.95,21.73-16.94,25.1.32,1.51.63,3.02.95,4.52,3.56-1.29,8.98-3.72,14.43-8.29,3.02-2.53,13.83-11.89,16.06-27.34,1.77-12.25-2.72-22.27-5.71-28.95-1.42-3.17-2.85-5.69-3.89-7.39-2.17,1.44-4.35,2.88-6.52,4.32Z"/>
        <path class="e" d="M283.84,120.46c-1.9-4.47-5.7-12.97-12.69-14.5-2.22-.49-3.64-.03-8.16,0-5.9.03-10.68-.71-13.81-1.35,0,0,0,0,0,0-.05-.02-.4-.13-.58-.19,0,0,0,0,0,0,0,0,0,0,0,0-.07-.03-.14-.05-.21-.08-6.76-2.78-8.88-24.81-1.16-29.3,1.76-1.02,3.71-.95,4.89-.8-.07-4.98-.14-9.97-.21-14.95-4.1-2.63-8.55-5.82-13.11-9.69-6.93-5.87-12.38-11.8-16.59-17.05-2.72.3-5.44.6-8.16.91-1.61,4.13-4.45,10.05-9.49,16.09-5.31,6.37-10.95,10.36-14.86,12.68.49,5.29.98,10.58,1.47,15.87,1.26-.36,4.31-1.03,6.73.57,2.02,1.34,2.3,3.76,3.29,7.6,1.7,6.61,3.19,13.23.26,17.38-4.85,6.88-14.9.54-26.79,7.71-5.82,3.51-3.99,5.38-15.53,16.84-6.01,5.97-9.94,9.6-15.98,13.43-3.41,2.16-6.85,3.88-10.32,5.15-.18,5.44-.36,10.89-.54,16.33,3.49-1.91,9.34-5.32,16.07-10.29,20.4-15.06,21.8-24.53,35.88-29.14,11.19-3.67,16.66.37,22.77-5.13,6.16-5.56,6.69-15.12,6.11-22.56,6.3-.64,12.61-1.27,18.91-1.91.25,14.93,4.56,20.43,8.28,22.76,7.27,4.54,14.26-1.46,23.57,2.72,3.62,1.63,7.75,4.88,16.31,24.47,3.75,8.58,8.44,20.51,12.69,35.35,4.83,2.42,9.67,4.83,14.5,7.25-9.69-30.4-18.27-53.74-23.57-66.16ZM228.4,80.26c-1.19.82-3.47,2.4-6.71,2.51-2.29.08-4.6-.6-6.91-2.05-5.14-3.23-8.26-8.01-10.01-13.03,5.86-5.79,11.22-11.09,16.13-15.95,5.3,4.22,10.61,8.44,15.91,12.65-.25,2.02-1.59,11.15-8.41,15.86Z"/>
      </g>
    </g>
  </g>
</svg>