<?xml version="1.0" encoding="UTF-8"?>
<svg id="b" data-name="Camada_2" xmlns="http://www.w3.org/2000/svg" viewBox="0 0 553.45 555.84">
  <defs>
    <style>
      .e {
        fill: #f5f2ee;
      }
    </style>
  </defs>
  <g id="c" data-name="Camada_1">
    <g>
      <g>
        <g>
          <path class="e" d="M3.33,490.04l-3.33-91.82,45.17-.59c15.71-.21,28.18,3.36,37.39,10.7,9.22,7.34,14.09,18.29,14.62,32.85.39,10.81-1.79,19.81-6.55,26.98-4.76,7.17-11.12,12.49-19.07,15.95-7.95,3.46-16.62,5.26-26,5.38l-42.23.55ZM30.56,486.94c11.02-.06,20.28-1.44,27.77-4.16,7.49-2.72,13.21-7.41,17.17-14.1,3.96-6.68,5.73-15.78,5.31-27.29-.37-10.29-2.5-18.44-6.37-24.45-3.88-6.01-9.57-10.28-17.08-12.8-7.52-2.52-17.16-3.66-28.94-3.42l-11.98-.89,3.22,88.68,10.91-1.58Z"/>
          <path class="e" d="M112.49,402.7c-1.8-1.42-2.73-3.13-2.81-5.13s.74-3.74,2.43-5.2c1.69-1.46,3.79-2.21,6.3-2.24,2.51-.03,4.69.66,6.54,2.07,1.85,1.42,2.81,3.13,2.89,5.13.07,2.01-.76,3.74-2.51,5.2-1.75,1.46-3.88,2.21-6.39,2.24-2.51.03-4.67-.66-6.46-2.07ZM130.17,488.38l-16.37.21-2.74-75.6,16.37-.21,2.74,75.6Z"/>
        </g>
        <path class="e" d="M163.7,491.79h-2.63s34.12-102.71,34.12-102.71h12.29s1.25,95.43,1.25,95.43l63.14-95.36h12.59s-34.26,102.72-34.26,102.72h-14.63s29.14-86.92,29.14-86.92l-57.68,86.88h-12.73s-1.06-88.55-1.06-88.55l-29.53,88.51Z"/>
        <path class="e" d="M299.79,395.84c-1.03-1.61-1.16-3.54-.41-5.78.75-2.24,2.17-4.17,4.27-5.78,2.1-1.61,4.27-2.41,6.51-2.41,2.24,0,3.9.81,4.98,2.42,1.07,1.61,1.23,3.54.49,5.78-.75,2.24-2.2,4.17-4.34,5.78-2.15,1.61-4.34,2.41-6.59,2.41-2.25,0-3.88-.81-4.9-2.42ZM280.78,491.89h-14.63s28.21-84.58,28.21-84.58h14.63s-28.21,84.58-28.21,84.58Z"/>
        <path class="e" d="M317.36,491.93h-14.63s33-98.91,33-98.91c1.66-4.97,2.28-8.8,1.86-11.49-.42-2.68-1.87-4.56-4.34-5.64-2.47-1.08-6.19-1.62-11.17-1.62l2.88-8.63c10.08,3.72,16.83,9.24,20.24,16.56,3.41,7.32,3.77,15.03,1.07,23.12l-28.9,86.61Z"/>
        <path class="e" d="M356.66,473.31c1.44,5.61,4.33,9.91,8.66,12.89,4.32,2.98,9.66,4.47,16,4.48,10.34,0,21.72-3.69,34.15-11.09l-4.15,12.44c-9.59,2.14-18.59,3.2-26.98,3.2-10.24,0-19.01-1.68-26.29-5-7.29-3.32-12.27-8.57-14.95-15.75-2.68-7.17-2.2-16.22,1.44-27.15,2.99-8.97,7.58-16.65,13.76-23.04,6.18-6.38,13.37-11.18,21.56-14.4,8.19-3.21,16.78-4.81,25.76-4.81,7.51,0,13.54,1.11,18.07,3.31,4.54,2.2,7.47,5.18,8.8,8.93,1.33,3.76,1.25,7.88-.25,12.37-1.69,5.07-5.08,9.61-10.17,13.6-5.09,4-11.4,7.11-18.93,9.35-7.53,2.24-15.68,3.35-24.46,3.34-7.12,0-14.28-.79-21.46-2.36-1.82,7.51-2.01,14.07-.56,19.68ZM385.21,413.84c-6.07,3.7-11.42,8.62-16.05,14.77-4.64,6.14-8.11,12.68-10.42,19.6l-.93,2.78c5.98.79,11.27,1.18,15.85,1.18,11.8.01,21.72-2.12,29.73-6.41,8.02-4.29,13.28-10.18,15.78-17.69,1.79-5.36,1.65-10-.41-13.9-2.07-3.9-7-5.86-14.8-5.87-6.44,0-12.69,1.84-18.76,5.54Z"/>
        <path class="e" d="M424.68,477.39c6.01,4.2,12.3,7.38,18.85,9.53,6.55,2.15,12.8,3.23,18.76,3.24s11.41-1.16,15.81-3.5c4.39-2.34,7.32-5.7,8.78-10.09,1.11-3.31.82-6.34-.85-9.07-1.68-2.73-4.07-5.13-7.19-7.18-3.12-2.05-7.41-4.54-12.88-7.47-5.98-3.13-10.71-5.86-14.17-8.21-3.46-2.35-6.12-5.13-7.97-8.35-1.85-3.22-2.1-6.88-.73-10.98,2.31-6.92,7.5-12.09,15.56-15.5,8.06-3.41,17.71-5.11,28.93-5.1,9.66,0,19.28,1.14,28.88,3.39l-4.88,14.63c-3.64-4-8.8-7.25-15.49-9.75-6.68-2.49-13.34-3.74-19.98-3.75-5.17,0-9.64.87-13.39,2.62-3.76,1.75-6.22,4.38-7.39,7.9-.85,2.54-.55,4.85.9,6.95,1.44,2.1,3.5,3.98,6.17,5.64,2.67,1.66,6.5,3.76,11.51,6.3,6.6,3.32,11.82,6.26,15.66,8.8,3.84,2.54,6.8,5.74,8.88,9.59s2.26,8.37.54,13.54c-2.86,8.58-8.78,14.85-17.76,18.79-8.98,3.94-19.42,5.91-31.32,5.9-9.66,0-19.63-1.29-29.9-3.83l4.69-14.05Z"/>
        <path class="e" d="M537.16,396.05c-1.02-1.61-1.16-3.54-.41-5.78s2.17-4.17,4.27-5.78c2.1-1.61,4.27-2.41,6.51-2.41,2.24,0,3.9.81,4.97,2.42,1.07,1.61,1.23,3.54.49,5.78-.75,2.24-2.19,4.17-4.34,5.78-2.15,1.61-4.34,2.41-6.58,2.41-2.25,0-3.88-.81-4.9-2.42ZM518.14,492.11h-14.63s28.21-84.58,28.21-84.58h14.63s-28.21,84.58-28.21,84.58Z"/>
      </g>
      <g>
        <path class="e" d="M93.07,555.45v-25.71h3.63l14.37,19.34v-19.34h3.66v25.71h-3.66l-14.37-19.37v19.37h-3.63Z"/>
        <path class="e" d="M138.09,529.74h3.94l9.4,25.71h-3.94l-2.47-6.69h-9.9l-2.43,6.69h-4.02l9.4-25.71ZM143.97,545.34l-3.91-10.71-3.87,10.71h7.78Z"/>
        <path class="e" d="M163.34,529.74h19.34v3.49h-7.85v22.22h-3.63v-22.22h-7.85v-3.49Z"/>
        <path class="e" d="M196.55,529.74h3.63v15.88c0,2.09.58,3.7,1.74,4.84,1.16,1.14,2.66,1.71,4.49,1.71s3.35-.57,4.56-1.71c1.21-1.14,1.81-2.75,1.81-4.84v-15.88h3.66v15.92c0,3.08-.95,5.54-2.85,7.4-1.9,1.86-4.27,2.78-7.11,2.78s-5.24-.93-7.11-2.78c-1.88-1.85-2.82-4.32-2.82-7.4v-15.92Z"/>
        <path class="e" d="M242.16,529.74c2.56,0,4.64.77,6.25,2.32,1.61,1.55,2.41,3.46,2.41,5.74,0,1.81-.54,3.4-1.62,4.77-1.08,1.37-2.5,2.27-4.26,2.69l6.3,10.18h-4.23l-5.85-9.54h-5.14v9.54h-3.63v-25.71h9.76ZM242.09,542.35c1.5,0,2.71-.44,3.63-1.32.92-.88,1.37-1.95,1.37-3.22s-.46-2.31-1.37-3.19c-.92-.88-2.13-1.32-3.63-1.32h-6.06v9.05h6.06Z"/>
        <path class="e" d="M272.59,529.74h3.94l9.4,25.71h-3.94l-2.47-6.69h-9.9l-2.43,6.69h-4.02l9.4-25.71ZM278.47,545.34l-3.91-10.71-3.87,10.71h7.78Z"/>
        <path class="e" d="M316.51,555.45h-16.59v-25.71h3.63v22.08h12.96v3.63Z"/>
        <path class="e" d="M350.92,529.74h3.63v11.09h12.75v-11.09h3.63v25.71h-3.63v-10.99h-12.75v10.99h-3.63v-25.71Z"/>
        <path class="e" d="M394.27,529.74h3.94l9.4,25.71h-3.94l-2.47-6.69h-9.9l-2.43,6.69h-4.02l9.4-25.71ZM400.15,545.34l-3.91-10.71-3.87,10.71h7.78Z"/>
        <path class="e" d="M425.23,555.45h-3.63v-25.71h3.63v25.71Z"/>
        <path class="e" d="M451.29,529.74c2.56,0,4.64.77,6.25,2.32,1.61,1.55,2.41,3.46,2.41,5.74,0,1.81-.54,3.4-1.62,4.77-1.08,1.37-2.5,2.27-4.26,2.69l6.3,10.18h-4.23l-5.85-9.54h-5.14v9.54h-3.63v-25.71h9.76ZM451.22,542.35c1.5,0,2.71-.44,3.63-1.32.92-.88,1.37-1.95,1.37-3.22s-.46-2.31-1.37-3.19c-.92-.88-2.13-1.32-3.63-1.32h-6.06v9.05h6.06Z"/>
      </g>
      <g>
        <g id="d" data-name="c">
          <path class="e" d="M364.48,140.82c-8.98,1.64-17.58,4.87-25.02,9.18-7.78,4.5-15.16,10.6-21.23,17.97-5.99-5.83-13.37-10.81-21.02-13.3-11.2-3.65-22.08-4.48-34.16-1.96,1.1,2.1,2.41,4.68,3.66,7.68,0,0,1.94,4.8,3.26,10.16,4.51,18.44,7.86,32.14,2.01,45.15-.98,2.18-8.49,18.2-24.37,20.89-13.72,2.32-24.8-7.49-31.33-13.23-19.17-16.85-23.09-40.49-24.1-50.04-3.4.31-6.79.62-10.19.93,6.92,41.2,30.06,70.61,55.87,73.48,1.63.18,18.11,1.77,31.18-8.65,18.04-14.39,16.79-41.46,16.33-51.37-.47-10.07-2.66-18.26-4.53-23.75,13.19,4.45,26.39,8.89,39.58,13.34,9.91-6.81,19.83-13.62,29.74-20.42,2.84,12.5,14.74,70.75-20.4,116.61-6.95,9.08-21.86,28.53-48.04,34.81-32.82,7.87-66.63-8.42-83.55-29.24-28.88-35.54-23.62-98.93-23.63-98.94-.18-.09-11.39,10.03-11.47,9.64,0,0-.05-.2-.11-.48-.05-.21-.05-.24-.06-.24,0,0,0,0,0,0,0,.06-.01.15-.02.26-.76,10.74-5.84,82.09,43.64,116.21,30.34,20.93,75.08,23.63,107.58,3.88,14.69-8.93,23.21-21.17,27.78-27.71,15.26-21.81,18.43-43.01,21.98-68.77,2.39-17.4,4.13-42.2.6-72.09Z"/>
        </g>
        <path class="e" d="M372.77,59.83c-2.17-6.56-5.85-16.13-12.04-26.86-7.79-13.5-12.36-21.43-22.01-27.06-15.39-8.98-32.03-5.26-35.69-4.5-12.19,2.53-23.38,9.47-32.85,20.51-23.13,26.97-21.8,31.9-39.33,46.07-2.73,2.21-15.91,12.56-33.51,17.52.05.24.09.47.13.7.94,6.4-3.8,12.34-7.61,16.06,6.09-.95,15.06-2.9,25-7.41,20.86-9.45,42.6-35.19,42.6-35.19,18.14-21.55,18.14-30.15,33.83-39.67,5.56-3.37,12.62-7.53,22.23-7.41,17.39.23,30.77,14.35,34.11,20.75.21.39,1.11,2.1,3.5,6.8,1.1,2.17,2.59,5.07,4.7,9.08,2.09,3.99,4.63,8.71,7.69,14.23.41.73.75,1.34.97,1.74,2.77-1.79,5.53-3.58,8.3-5.37Z"/>
        <path class="e" d="M428.57,266.12c-5.64,6.7-7.85,14.21-6.46,21.01,1.12,5.47,4.41,9.2,5.3,10.04,5.67,5.39,10.73,5.44,17.52,9.56,3.83,2.33,8.82,6.48,12.57,14.36,3.33-.19,6.66-.38,9.99-.57-.99-3.45-2.91-8.91-6.82-14.8-11.04-16.66-23.74-15.38-26.66-26.08-3.89-14.26,15.58-27.74,8.41-36.32-2.01-2.4-3.39-3.27-11.46-8.64-7.98-5.3-8.62-11.3-1.76-18.94.67-.75,10.35-16.25,6.11-26.68-.91-2.23-3.68-7.25-13.64-10.63-1.58,4.07-3.17,8.15-4.75,12.22,6.34,7.41,6.59,12.97,5.71,16.63-2.31,9.67-14.42,14.1-13.6,23.02.32,3.51,2.59,7.05,2.96,7.62,1.63,2.53,3.84,4.74,6.62,6.61,2.63,1.77,5.35,3.44,8.01,5.17,6.2,4.03,6.94,10.44,1.93,16.41Z"/>
        <path class="e" d="M408.45,110.33c4.71-7.39,5.92-15.11,3.65-21.68-1.82-5.27-5.58-8.54-6.57-9.26-6.33-4.6-11.35-3.98-18.62-7.18-4.1-1.8-9.6-5.26-14.35-12.59-3.28.63-6.55,1.25-9.83,1.88,1.43,3.29,4.05,8.45,8.7,13.77,13.14,15.07,25.56,12.13,29.86,22.36,5.73,13.62-11.81,29.55-3.57,37.11,2.3,2.11,3.79,2.8,12.5,7.06,4.12,2.01,6.59,4.41,7.42,7.29.84,2.94-.59,4.84-3.19,11.25-3.44,8.51-5.17,12.77-4.7,16.61.37,3.03,1.44,3.66,7.24,13.66,2.45,4.22,4.36,7.73,5.61,10.05,2.68-5.76,5.37-11.53,8.05-17.29-7.26-6.53-8.71-11.79-8.59-15.49.32-9.83,11.67-19.27,10.46-24.61-.78-3.44-3.49-6.65-3.94-7.17-1.95-2.3-4.43-4.19-7.43-5.69-2.84-1.41-5.76-2.71-8.62-4.07-6.67-3.18-8.25-9.44-4.06-16.02Z"/>
        <path class="e" d="M426.19,307.46c-11.04-16.66-23.74-15.38-26.66-26.08-3.89-14.26,15.58-27.74,8.41-36.32-2.01-2.4-3.39-3.27-11.46-8.64-3.82-2.54-5.96-5.24-6.4-8.2-.45-3.02,1.39-4.81,4.64-10.74,2.39-4.36,3.97-8.06,4.91-10.41-4.94-2.78-9.88-5.56-14.82-8.33-2.7,10-5.5,17.02-7.77,21.88-1.15,2.47-3.45,6.46-2.48,11.41.83,4.23,2.84,7.43,2.84,7.43.05.08.09.15.12.19,1.63,2.53,3.84,4.74,6.62,6.61,2.63,1.77,5.35,3.44,8.01,5.17,6.2,4.03,6.94,10.44,1.93,16.41-5.64,6.7-7.85,14.21-6.46,21.01,1.12,5.47,4.41,9.2,5.3,10.04,5.67,5.39,10.73,5.44,17.52,9.56,3.83,2.33,8.82,6.48,12.57,14.36,3.33-.19,6.66-.38,9.99-.57-.99-3.45-2.91-8.91-6.82-14.8Z"/>
        <path class="e" d="M158.35,118.02c-2.12,4.18-7.34,14.49-6.6,28.17.18,3.42.69,6.25,1.14,8.23-5.89-1.91-14.85-3.83-25.63-2.37-22.16,3-36.58,18.22-41.31,23.67,2.09,4.48,8.85,17.37,23.8,24.44,25.65,12.15,50.88-4.46,52.22-5.36.23,3.02.46,6.03.7,9.05,2.78-2.78,5.57-5.57,8.35-8.35,1.16-5.11,2.32-10.21,3.48-15.32-3.52,2.83-19.15,14.77-41.77,13.23-20.34-1.39-33.37-12.78-37-16.19,7.59-4.46,20.79-10.88,38.4-13.05,13.59-1.68,25-.23,32.72,1.39-1.62-5.19-5.21-19.25.7-34.81,1.26-3.31,4.67-11.11,12.11-18.29,7.98-7.69,16.73-10.93,22.23-12.96,3.76-1.39,6.99-2.25,9.26-2.78l-13.89-11.11c-3.98,1.49-27.94,10.79-38.89,32.41Z"/>
        <path class="e" d="M197.94,109.87c1.83,4.47,7.66,20.26,1.66,38.86-4.47,13.85-13.23,22.2-17.31,25.64.32,1.54.65,3.08.97,4.62,3.64-1.32,9.17-3.8,14.74-8.47,3.08-2.59,14.13-12.15,16.41-27.93,1.81-12.51-2.77-22.76-5.83-29.58-1.45-3.24-2.91-5.81-3.97-7.55-2.22,1.47-4.44,2.94-6.67,4.42Z"/>
        <path class="e" d="M375.96,123.08c-1.94-4.56-5.83-13.25-12.96-14.82-2.27-.5-3.72-.03-8.33,0-6.03.03-10.91-.73-14.11-1.38,0,0,0,0,0,0-.05-.02-.41-.13-.59-.2,0,0,0,0,0,0,0,0,0,0,0,0-.08-.03-.14-.06-.21-.08-6.9-2.84-9.07-25.35-1.19-29.94,1.8-1.04,3.79-.97,5-.81-.07-5.09-.14-10.19-.21-15.28-4.19-2.69-8.73-5.95-13.4-9.9-7.08-6-12.65-12.06-16.95-17.42-2.78.31-5.56.62-8.33.93-1.64,4.22-4.55,10.27-9.69,16.44-5.43,6.51-11.19,10.58-15.18,12.96.5,5.41,1,10.81,1.5,16.22,1.28-.37,4.4-1.06,6.88.58,2.06,1.37,2.35,3.84,3.36,7.77,1.73,6.76,3.26,13.52.27,17.76-4.96,7.03-15.22.55-27.37,7.88-5.95,3.59-4.07,5.49-15.86,17.2-6.14,6.1-10.16,9.81-16.32,13.73-3.48,2.21-7,3.96-10.54,5.26-.18,5.56-.37,11.12-.55,16.68,3.56-1.96,9.54-5.43,16.42-10.51,20.84-15.39,22.27-25.06,36.66-29.77,11.44-3.75,17.03.38,23.26-5.25,6.29-5.68,6.84-15.45,6.25-23.05,6.44-.65,12.88-1.3,19.32-1.95.25,15.25,4.66,20.88,8.46,23.25,7.43,4.64,14.56-1.5,24.08,2.78,3.7,1.66,7.92,4.98,16.67,25,3.83,8.76,8.63,20.95,12.96,36.12,4.94,2.47,9.88,4.94,14.82,7.41-9.91-31.06-18.67-54.91-24.08-67.6ZM319.32,82c-1.22.84-3.55,2.45-6.85,2.57-2.34.08-4.7-.62-7.06-2.1-5.25-3.3-8.43-8.18-10.23-13.32,5.99-5.92,11.47-11.33,16.48-16.29,5.42,4.31,10.84,8.62,16.25,12.93-.26,2.07-1.62,11.39-8.6,16.21Z"/>
      </g>
    </g>
  </g>
</svg>